HIERARCHY
ROOT Hips
{
  OFFSET -91.4066 87.1039 -173.718
  CHANNELS 6 Xposition Yposition Zposition Zrotation Xrotation Yrotation
  JOINT RightUpLeg
  {
    OFFSET -8.9458 -8.66707 0.101652
    CHANNELS 3 Zrotation Xrotation Yrotation
    JOINT RightLeg
    {
      OFFSET 0 -44.4227 1.3727
      CHANNELS 3 Zrotation Xrotation Yrotation
      JOINT RightFoot
      {
        OFFSET 0.253549 -42.0924 -1.46059
        CHANNELS 3 Zrotation Xrotation Yrotation
        JOINT RightToes
        {
          OFFSET 0.04 -4.41509 8.4991
          CHANNELS 3 Zrotation Xrotation Yrotation
          End Site
          {
            OFFSET -0.08 -0.137448 9.77979
          }
        }
      }
    }
  }
  JOINT LeftUpLeg
  {
    OFFSET 8.9458 -8.66707 0.101652
    CHANNELS 3 Zrotation Xrotation Yrotation
    JOINT LeftLeg
    {
      OFFSET 0 -44.4227 1.3727
      CHANNELS 3 Zrotation Xrotation Yrotation
      JOINT LeftFoot
      {
        OFFSET -0.253549 -42.0924 -1.46059
        CHANNELS 3 Zrotation Xrotation Yrotation
        JOINT LeftToes
        {
          OFFSET -0.04 -4.41509 8.4991
          CHANNELS 3 Zrotation Xrotation Yrotation
          End Site
          {
            OFFSET 0.08 -0.047448 9.77979
          }
        }
      }
    }
  }
  JOINT Spine
  {
    OFFSET 0 11.8905 0
    CHANNELS 3 Zrotation Xrotation Yrotation
    JOINT Spine1
    {
      OFFSET 0 25.6574 0.127663
      CHANNELS 3 Zrotation Xrotation Yrotation
      JOINT HEad
      {
        OFFSET 0 8.73416 0.011341
        CHANNELS 3 Zrotation Xrotation Yrotation
        End Site
        {
          OFFSET -0.29 12.7742 2.51395
        }
      }
      JOINT LeftShoulder1
      {
        OFFSET 8.99 -0.362252 -0.22
        CHANNELS 3 Zrotation Xrotation Yrotation
        JOINT LeftArm
        {
          OFFSET 10.2827 -0.00338 0.322123
          CHANNELS 3 Zrotation Xrotation Yrotation
          JOINT LeftForeArm
          {
            OFFSET 32.7669 0.099144 -1.42434
            CHANNELS 3 Zrotation Xrotation Yrotation
            JOINT LeftHand
            {
              OFFSET 27.5643 0.085362 1.02216
              CHANNELS 3 Zrotation Xrotation Yrotation
              End Site
              {
                OFFSET 16.7443 -0.6 1.50291
              }
            }
          }
        }
      }
      JOINT RightShoulder
      {
        OFFSET -8.99 -0.362252 -0.22
        CHANNELS 3 Zrotation Xrotation Yrotation
        JOINT RightArm
        {
          OFFSET -10.2827 -0.00338 0.322123
          CHANNELS 3 Zrotation Xrotation Yrotation
          JOINT RightForeArm
          {
            OFFSET -32.8971 0.099144 -1.42434
            CHANNELS 3 Zrotation Xrotation Yrotation
            JOINT RightHand
            {
              OFFSET -27.4921 0.085362 1.02216
              CHANNELS 3 Zrotation Xrotation Yrotation
              End Site
              {
                OFFSET -16.6312 -0.6 1.50291
              }
            }
          }
        }
      }
    }
  }
}
MOTION
Frames:	8
Frame Time:	0.0166667
-93.8544 95.9099 -201.892 3.12292 -7.84731 -10.8132 -22.9313 -11.7364 -10.2823 -32.7701 49.2556 58.1005 14.3456 1.91281 -0.185675 0.0462048 0.000533403 0.662642 17.198 -24.8358 12.8415 -1.68503 30.2391 10.3358 33.4282 -2.61945 1.87885 -1.18446e-009 1.5602e-007 -4.87132e-009 6.05284 18.0264 11.7351 0.0209001 -0.0157097 -0.019012 -33.016 20.9203 26.1095 -1.04362e-015 1.59028e-015 3.97569e-016 155.033 -72.4363 163.362 -87.2869 55.2324 -53.0979 7.66868 20.0546 -1.38582 31.6787 -2.16769 5.77383 53.2814 -25.2748 62.7365 46.1364 54.8213 81.183 -6.94395 23.4147 1.52229 
-95.6637 95.423 -204.053 3.23289 -6.9475 -9.78216 -22.6854 -7.34406 -6.00915 -22.2244 45.0314 46.7285 13.0757 1.04978 -0.11063 0.0462048 0.000533403 0.662642 18.2906 -26.0299 11.7279 -3.78395 28.3308 12.1881 37.8985 -2.0254 1.93813 -1.18447e-009 1.5602e-007 -4.87131e-009 5.74253 17.8535 12.5238 0.0209015 -0.0121182 -0.018068 -33.4881 19.3125 25.4596 -2.28602e-015 -3.18055e-015 -0 155.934 -72.6406 165.302 -86.9896 55.5066 -53.8466 5.69204 18.9329 3.19824 30.8774 -2.66709 4.90499 55.5509 -24.5291 64.1094 46.5635 54.9243 80.8183 -6.72993 22.9861 1.0284 
-97.5201 95.0179 -206.091 3.19015 -6.08716 -8.89737 -22.1617 -2.88167 -1.02081 -13.4061 39.8231 34.5823 11.851 0.0766109 -0.0171663 0.0462048 0.000533403 0.662642 19.0962 -26.9837 10.7056 -4.12507 26.9351 10.7115 40.6513 -1.50961 1.90591 -1.18446e-009 1.5602e-007 -4.87131e-009 5.66174 17.6051 13.0929 0.0209017 -0.0121182 -0.0169337 -33.8874 17.8353 25.0721 1.98785e-016 0 2.38542e-015 156.192 -72.7162 166.735 -87.0568 55.7936 -54.2516 7.23983 19.4077 -1.11746 29.9382 -2.78915 3.9511 58.0073 -23.6333 65.7628 47.1449 55.0782 80.063 -6.51101 22.7824 0.471936 
-99.3833 94.6529 -208.01 3.0127 -5.32034 -8.14575 -21.8435 1.02136 3.58129 -6.92642 34.0815 23.7356 11.2896 -0.897905 0.0945133 0.0462048 0.000533403 0.662642 19.623 -27.7437 9.74511 -3.28592 25.9886 6.73224 41.9993 -1.22609 1.83969 -1.18445e-009 1.5602e-007 -4.87131e-009 5.7656 17.3441 13.4496 0.0209019 -0.0121182 -0.0158945 -34.2084 16.484 24.9659 1.98785e-015 0 2.38542e-015 155.981 -72.7128 167.893 -87.5589 56.1216 -54.1393 6.11574 18.4052 1.46042 29.0663 -2.56415 2.92424 60.3747 -22.6171 67.5707 47.811 55.2473 79.0535 -6.47711 22.5678 -0.0266009 
-101.278 94.3313 -209.762 2.75778 -4.74173 -7.49867 -21.6095 4.35432 7.75841 -0.913368 29.9708 12.7614 8.06563 -1.86303 0.182919 0.0462048 0.000533403 0.662642 19.8615 -28.2613 8.81459 -1.61537 25.4357 0.809538 42.2041 -1.1427 1.77536 -1.18446e-009 1.5602e-007 -4.87131e-009 5.97813 17.1395 13.5892 0.0209021 -0.0121182 -0.0152359 -34.4517 15.2911 25.1494 1.98785e-015 0 7.95139e-016 155.268 -72.6625 168.696 -88.5745 56.4349 -53.6218 7.04518 18.3842 -1.33659 28.4133 -2.13651 2.00448 62.3726 -21.6319 69.1804 48.4843 55.4159 77.9973 -6.5207 22.4449 -0.407167 
-103.123 93.9899 -211.344 2.44761 -4.3565 -6.92719 -21.8378 7.12708 11.6644 5.11083 26.2343 2.66184 7.2125 -2.43483 0.232141 0.0462048 0.000533403 0.662642 19.8936 -28.5629 7.88284 -0.157518 24.5158 -4.22838 42.1329 -1.14297 1.69611 -1.18447e-009 1.5602e-007 -4.87131e-009 6.28162 16.9915 13.4992 0.0209021 -0.0121182 -0.0152359 -34.6476 14.3135 25.6324 1.98785e-015 3.18055e-015 -0 154.474 -72.5951 169.48 -89.9296 56.7145 -52.6811 6.36789 17.8729 -0.00973711 27.7886 -1.57879 1.16666 64.2195 -20.649 70.5635 49.1143 55.5339 76.9348 -6.69427 22.3068 -0.691616 
-104.848 93.684 -212.727 2.09547 -4.16101 -6.40326 -22.1155 9.38826 15.1546 10.753 22.7228 -5.64621 4.41905 -2.97774 0.2486 0.0462048 0.000533403 0.662642 19.7748 -28.5613 6.98295 1.18018 23.4073 -8.42036 41.6325 -1.18114 1.63063 -1.18446e-009 1.5602e-007 -4.87131e-009 6.68746 16.8725 13.1825 0.0209021 -0.0121182 -0.0152359 -34.8163 13.6251 26.4005 1.98785e-016 -1.59028e-015 7.95139e-016 153.827 -72.5131 170.324 -91.5017 56.8782 -51.4767 6.79719 18.0393 -1.96544 27.3617 -1.04343 0.551727 65.7113 -19.7319 71.514 49.6457 55.5931 75.9304 -6.90746 22.202 -0.721193 
-106.483 93.4482 -214.049 1.71602 -4.12387 -5.92838 -21.9825 10.4712 17.5225 14.9608 20.2628 -10.9655 3.47343 -3.19102 0.281256 0.0462048 0.000533403 0.662642 19.6641 -28.428 6.19144 2.35099 22.4856 -11.7043 40.7321 -1.29903 1.59202 -1.18446e-009 1.5602e-007 -4.87132e-009 7.14761 16.7652 12.6853 0.0209021 -0.0121182 -0.0152359 -34.8836 13.1794 27.3815 -9.93923e-016 -3.18055e-015 -7.95139e-016 153.617 -72.516 171.462 -92.9853 56.9406 -50.1733 6.26959 17.8896 -1.16272 26.9287 -0.385732 0.0982765 67.1089 -18.8923 72.2102 50.0385 55.6066 75.0067 -6.91269 21.996 -0.961515 
